<svg version="1.1" id="Layer_1" xmlns="http://www.w3.org/2000/svg" xmlns:xlink="http://www.w3.org/1999/xlink" x="0px" y="0px" viewBox="0 0 1200 1200" enable-background="new 0 0 1200 1200" xml:space="preserve">
<g>
	<path fill="#015AF2" d="M392.104,849.633H316.01c-24.921,0-45.124,20.203-45.124,45.124v0c0,8.722,7.071,15.793,15.793,15.793
		h35.552c8.722,0,15.793-7.071,15.793-15.793v-6.769c0-8.722,7.071-15.793,15.793-15.793h6.698c8.723,0,15.793,7.071,15.793,15.793
		v6.769c0,8.722,7.071,15.793,15.793,15.793h0c8.723,0,15.793-7.071,15.793-15.793v-29.331
		C407.898,856.704,400.827,849.633,392.104,849.633z"></path>
	<path fill="#0A0B0F" d="M430.61,910.55h-62.651c-54.748,0-99.13-44.382-99.13-99.13V265.882C268.829,146.654,365.483,50,484.711,50
		h30.953v638.088L430.61,910.55z"></path>
	<path fill="#0A0B0F" d="M870.469,101.611c-35.101,32.94-51.541,85.752-56.082,139.829h116.784v0
		C931.171,186.263,907.819,136.547,870.469,101.611z"></path>
	<path fill="#F8D313" d="M870.469,101.611C836.25,69.604,790.283,50,739.731,50H515.665v84.766c109.637,0,219.108,0,328.915,0
		C851.773,122.366,860.317,111.137,870.469,101.611z"></path>
	<path fill="#F8B813" d="M822.458,191.316c5.042-20.347,12.277-39.579,22.122-56.55c-109.807,0-219.278,0-328.915,0v54.515
		C617.659,187.874,720.005,189.943,822.458,191.316z"></path>
	<path fill="#F89513" d="M515.665,189.281v52.159h298.723c1.431-17.034,4.058-33.931,8.071-50.124
		C720.005,189.943,617.659,187.874,515.665,189.281z"></path>
	<path fill="#0A0B0F" d="M515.665,1150V810.699H359.335v182.972C359.335,1080.009,429.326,1150,515.665,1150L515.665,1150z"></path>
	<path fill="#F8B813" d="M515.665,50L515.665,50c-63.943,0-119.953,33.932-151.029,84.766c50.343,0,100.686,0,151.029,0V50z"></path>
	<path fill="#FFFFFF" d="M364.635,134.766c-16.406,26.836-25.869,58.377-25.869,92.132v164.927c0,48.849,39.6,88.449,88.449,88.449
		h0c48.849,0,88.449-39.6,88.449-88.449v-257.06C465.321,134.766,414.978,134.766,364.635,134.766z"></path>
	<g>
		<polygon fill="#0A0B0F" points="508.916,310.702 508.916,310.702 508.916,310.702 		"></polygon>
		<path fill="#0A0B0F" d="M548.047,339.962c-45.3-39.134-116.93-14.194-126.861,44.84c-0.813,4.834-1.237,9.801-1.237,14.866V503.67
			v406.88c139.875-39.108,242.478-167.488,242.478-319.844c0-99.935-44.151-189.544-114.005-250.418
			C548.3,340.18,548.174,340.071,548.047,339.962z"></path>
	</g>
	<g>
		<path fill="#015AF2" d="M393.123,134.766l29.817-29.817c16.467-16.467,43.167-16.467,59.634,0l0,0
			c16.467,16.467,16.467,43.167,0,59.634l0,0c-16.467,16.467-43.167,16.467-59.634,0L393.123,134.766z"></path>
		<circle fill="#0A0B0F" cx="452.757" cy="134.766" r="23.755"></circle>
	</g>
	<path fill="#015AF2" d="M464.724,849.633H388.63c-24.921,0-45.124,20.203-45.124,45.124v0c0,8.722,7.071,15.793,15.793,15.793
		h35.552c8.723,0,15.793-7.071,15.793-15.793v-6.769c0-8.722,7.071-15.793,15.793-15.793h6.698c8.723,0,15.793,7.071,15.793,15.793
		v6.769c0,8.722,7.071,15.793,15.793,15.793h0c8.723,0,15.793-7.071,15.793-15.793v-29.331
		C480.517,856.704,473.446,849.633,464.724,849.633z"></path>
</g>
</svg>